<svg width="172" height="218" viewBox="0 0 172 218" fill="none" xmlns="http://www.w3.org/2000/svg"><path fill-rule="evenodd" clip-rule="evenodd" d="M18.933 1.567c-.537.422-1.686.894-2.554 1.049-.869.154-2.029.664-2.579 1.132C12.512 4.845 11.155 5.6 10.47 5.6c-.298 0-.747.45-.997 1-.251.55-.734 1-1.073 1-.339 0-.821.447-1.069.992-.249.546-.785 1.098-1.192 1.227-.406.129-.739.461-.739.738 0 .276-.613 1.364-1.361 2.417-.84 1.18-1.465 2.626-1.631 3.77C2.26 17.765 1.747 19.23 1.269 20L.4 21.4v73.4c0 67.836.051 73.476.667 74.4.366.55.974 2.26 1.349 3.8.376 1.54 1.021 3.122 1.434 3.516.412.393.75.974.75 1.291 0 .316 1.239 1.794 2.754 3.284 3.753 3.691 4.253 4.076 6.154 4.747.909.321 1.957.859 2.33 1.197 1.177 1.065 7.475 1.315 38.362 1.526 24.204.166 30.251.313 32.2.787 1.32.32 3.48.708 4.8.862 1.32.154 3.6.8 5.067 1.435s2.952 1.155 3.3 1.155c.348 0 .989.356 1.424.791.435.435 1.409 1.049 2.165 1.365 1.659.693 2.182 1.129 6.372 5.309 3.754 3.747 4.857 5.124 5.676 7.083.321.769.787 1.523 1.035 1.676.249.154.785 1.032 1.192 1.952.407.921 1.106 2.005 1.554 2.411.448.405.815.916.815 1.135 0 2.284 5.412 4.033 7.012 2.265.404-.447 1.527-1.012 2.496-1.256.968-.244 1.851-.68 1.962-.969.111-.289 1.152-.802 2.314-1.14 1.161-.338 2.33-.877 2.597-1.199.267-.322 1.437-.862 2.6-1.2 1.163-.338 2.321-.864 2.574-1.169.253-.305 1.312-.787 2.353-1.072 1.04-.285 2.401-.937 3.023-1.45.622-.513 1.532-.932 2.022-.932.49 0 1.499-.448 2.241-.995.741-.548 1.991-1.114 2.777-1.258.786-.144 1.938-.686 2.56-1.205.622-.518 1.41-.942 1.751-.942.341 0 1.543-.517 2.669-1.15 1.127-.632 2.589-1.275 3.249-1.429.66-.154 1.56-.606 2-1.005.44-.398 1.25-.858 1.8-1.023 3.107-.928 4.433-4.452 2.812-7.476-.434-.809-1.004-2.336-1.267-3.394-.262-1.058-.841-2.627-1.286-3.488-.678-1.314-.86-2.748-1.137-8.953-.187-4.177-.581-8.277-.908-9.435-.317-1.126-.781-4.561-1.029-7.633-.373-4.607-.616-5.869-1.389-7.2-.515-.888-1.058-2.277-1.206-3.086-.148-.81-.501-1.562-.785-1.671-.52-.199-1.805-2.45-1.805-3.161 0-.209-.45-.735-1-1.167-.55-.433-1-.963-1-1.177 0-.659-7.815-7.952-8.521-7.952-.222 0-1.016-.468-1.766-1.039-.749-.571-2.026-1.219-2.837-1.438-.812-.22-1.837-.733-2.279-1.14-2.378-2.192-19.186-2.146-22.172.062-1.255.928-4.03.909-4.973-.033-.329-.329-.506-15.185-.652-54.732L114.4 19l-1.5-3.069c-.825-1.688-1.5-3.164-1.5-3.282 0-.186-.961-1.313-2.376-2.784-.245-.256-.666-.699-.935-.984a19.803 19.803 0 00-1.027-1c-.296-.265-.952-.859-1.458-1.321-.506-.462-1.704-1.151-2.662-1.532-.958-.38-2.102-1.015-2.542-1.411-.44-.395-1.45-.834-2.245-.975-.795-.142-1.768-.614-2.162-1.05C94.886.369 20.487.344 18.933 1.567zM94.94 11.639c.693.242 1.26.588 1.26.769 0 .182.665.55 1.478.818 1.535.506 4.122 2.712 4.122 3.514 0 .253.175.46.39.46.497 0 1.61 2.133 1.61 3.086 0 .399.405 1.443.9 2.32l.9 1.594.118 44.834c.112 42.968.087 44.872-.616 45.739l-.733.905-1.784-1.475c-.982-.812-1.973-1.906-2.202-2.433-.23-.526-.813-1.324-1.295-1.774-.483-.45-1.001-1.306-1.15-1.902-.15-.597-.692-1.415-1.205-1.818-.513-.404-.933-.968-.933-1.254 0-.286-.339-1.308-.753-2.271-.714-1.661-.764-3.721-.977-40.283-.168-28.707-.345-38.677-.697-39.1-.689-.831-71.636-.856-72.325-.025-.331.398-.424 16.571-.349 60.7L20.8 144.2l30.017.2 30.018.2 1.878 1.6c1.31 1.116 2.009 2.084 2.311 3.2.239.88.675 2.082.969 2.67.466.931.449 1.145-.129 1.64-.953.817-5.804 3.09-6.594 3.09-.367 0-1.343.6-2.169 1.333-.825.734-1.781 1.434-2.123 1.558-.342.123-.88 1.008-1.196 1.966-.315.959-.89 2.366-1.278 3.128-.968 1.904-.918 5.804.114 8.868 1.093 3.245.625 4.927-1.547 5.562-2.63.769-47.266.343-48.495-.463-.543-.356-1.615-.782-2.382-.948-2.784-.6-6.887-3.728-7.359-5.609-.141-.558-.596-1.356-1.012-1.772C10.46 169.06 10.4 165.829 10.4 94.4c0-71.026.052-73.852 1.389-75.189.403-.403.849-1.101.992-1.551.424-1.337 3.038-3.605 5.819-5.05l2.6-1.351 36.24-.03c25.353-.02 36.619.103 37.5.41zm-11.249 21.67l1.109 1.109.107 31.527.107 31.527-1.207 1.519c-.664.836-1.207 1.638-1.207 1.784 0 .145-.675.502-1.5.792-.825.291-1.86.855-2.3 1.254-.44.399-1.295.913-1.9 1.142-.605.23-1.1.671-1.1.981 0 .31-.45.859-1 1.219-.55.361-1 .97-1 1.353 0 .384-.489 1.415-1.086 2.291-1.49 2.187-1.647 9.405-.246 11.3.464.628 1.054 2.152 1.31 3.386.256 1.235.725 2.461 1.043 2.724 1.306 1.084 2.08 5.225 1.15 6.154-.948.949-44.328.955-45.682.006l-.889-.622V83.666c0-54.215-.186-50.435 2.518-51.229.753-.221 11.479-.348 25.973-.307l24.691.07 1.109 1.109zm-28.6 24.959c-.279.112-1.271.989-2.203 1.948-.932.959-2.368 2.026-3.192 2.369-.823.344-1.496.758-1.497.92 0 .162-.792.795-1.759 1.406-1.066.673-2.032 1.699-2.451 2.6-.38.819-.948 1.784-1.263 2.145-1.83 2.103.582 9.33 3.451 10.339.783.276 1.787.832 2.232 1.237.596.542 1.87.836 4.832 1.115 2.737.257 4.522.646 5.585 1.216.859.46 1.845.837 2.19.837.783 0 3.006 2.301 3.36 3.478.207.69-.129 1.275-1.574 2.741l-1.838 1.864-4.756-.141c-4.553-.136-4.805-.189-5.904-1.242-.631-.605-1.417-1.1-1.746-1.1-.329 0-.769-.165-.978-.366-.676-.652-2.736-.577-4.518.162-2.023.84-2.123 2.438-.253 4.046.545.468.998 1.01 1.007 1.205.024.527 5.032 3.353 5.943 3.353 1.869 0 2.83.747 3.32 2.578 1.017 3.805 6.883 3.323 8.15-.669.349-1.1 1.307-1.879 2.33-1.896.733-.013 4.549-2.336 5.905-3.596 1.645-1.529 3.154-7.508 2.25-8.92-.316-.493-.809-1.752-1.096-2.797-.287-1.045-.687-1.9-.888-1.9-.202 0-.833-.467-1.403-1.037-.754-.754-1.868-1.205-4.082-1.651-1.675-.337-3.517-.853-4.093-1.146-.577-.293-2.256-.657-3.733-.808-2.261-.232-2.946-.494-4.351-1.664-2.774-2.31-2.78-2.351-.662-4.593l1.606-1.701 3.598.073c2.934.059 3.997.262 5.769 1.1 3.34 1.58 6.018 1.355 7.175-.602.683-1.157.594-1.971-.217-1.971-.229 0-.918-.495-1.532-1.1a39.903 39.903 0 00-2.46-2.183c-2.813-2.264-5.372-4.446-6.061-5.167-.687-.72-2.954-.981-4.193-.482zm35.065 55.568c1.389 1.296 2.048 2.26 2.239 3.28.149.794.544 1.644.877 1.887.333.243.857 1.415 1.166 2.603.308 1.189.825 2.31 1.149 2.491.324.181.792 1.082 1.04 2.002.247.92.792 2.108 1.21 2.639.418.532.958 1.702 1.2 2.6.242.899.782 2.069 1.2 2.6.418.532.957 1.708 1.197 2.614.241.906.761 2.008 1.156 2.448.395.44.854 1.25 1.02 1.8.94 3.118 4.053 4.185 7.141 2.448 1.127-.634 2.699-1.267 3.494-1.408.795-.141 1.765-.609 2.155-1.04.39-.431 1.36-.897 2.155-1.036.795-.138 2.075-.66 2.845-1.161s2.3-1.021 3.4-1.156c1.1-.136 3.203-.553 4.673-.928 2.483-.634 2.824-.636 4.8-.033 1.17.358 3.057.769 4.194.915 1.218.156 2.606.662 3.378 1.232.721.532 1.519.967 1.773.967.255 0 1.017.495 1.695 1.1.677.605 1.696 1.46 2.264 1.9 1.08.837 4.223 4.81 4.223 5.339 0 .168.442.905.983 1.638.541.733 1.192 2.338 1.447 3.566.255 1.229.803 2.867 1.217 3.64.661 1.233.754 2.335.76 9.011.008 9.172.503 14.412 1.556 16.483 1.974 3.879 1.843 8.586-.252 9.107-.611.151-1.471.606-1.911 1.01-.44.404-1.542.931-2.448 1.172-.906.24-2.076.761-2.6 1.158-.524.396-1.762.967-2.752 1.269-.99.302-2.098.8-2.462 1.106-.364.306-1.477.802-2.473 1.101-.996.3-2.164.899-2.595 1.33-.432.432-1.508.908-2.392 1.057-.884.149-1.917.615-2.297 1.034-.38.42-1.341.884-2.136 1.032-.795.147-1.985.675-2.645 1.174-2.74 2.069-6.477.996-7.249-2.081-.133-.531-.553-1.185-.933-1.455s-1.145-1.214-1.7-2.097c-.555-.883-1.304-1.85-1.664-2.149-.36-.299-.654-.779-.654-1.067 0-.288-.54-.908-1.2-1.378-.66-.47-1.2-1.112-1.2-1.427 0-.315-.24-.573-.534-.573-.294 0-1.015-.54-1.603-1.2-.588-.66-1.297-1.2-1.575-1.2s-1.132-.515-1.897-1.143c-.765-.629-1.841-1.277-2.391-1.44-.55-.164-1.63-.71-2.4-1.214s-2.076-1.034-2.902-1.178c-.825-.144-1.815-.593-2.2-.997-.384-.404-1.328-.863-2.098-1.019-.77-.156-2.03-.697-2.8-1.201-.77-.504-1.94-1.04-2.6-1.192-.66-.151-1.56-.6-2-.996-.44-.397-1.502-.946-2.359-1.221-3.595-1.153-6.641-4.63-6.641-7.582 0-2.071 1.109-4.004 2.346-4.09 1.915-.133 3.284.074 4.175.632.483.303 1.591.676 2.461.83.87.153 2.099.713 2.731 1.245 1.48 1.245 5.626 1.423 6.215.266 1.481-2.907.862-10.942-.944-12.262-.346-.253-.798-1.21-1.004-2.127-.206-.917-.825-2.332-1.377-3.145-.552-.813-1.003-1.878-1.003-2.368s-.369-1.36-.821-1.933c-.451-.574-1.105-1.903-1.454-2.954-.348-1.051-.938-2.271-1.311-2.711-.373-.44-.887-1.536-1.143-2.435-.255-.899-.807-2.03-1.225-2.512-.419-.483-.885-1.548-1.036-2.366-.151-.818-.604-1.847-1.007-2.287-.402-.44-.944-1.61-1.203-2.6-.259-.99-.796-2.16-1.193-2.6-.396-.44-.843-1.377-.991-2.081-.149-.705-.593-1.695-.985-2.2-4.898-6.301 1.036-13.787 6.725-8.483zm-41.557 45.367c-.242.451-.379 2.334-.315 4.3L48.4 167H68l.123-3c.067-1.65.014-3.585-.119-4.3l-.24-1.3h-9.368c-8.969 0-9.386.034-9.797.803z" fill="#CACBD7"/></svg>