<svg xmlns="http://www.w3.org/2000/svg" viewBox="0 0 512 420.01"><defs><style>.cls-1{fill:#c3c5d2}</style></defs><g id="Слой_2" data-name="Слой 2"><g id="Слой_1-2" data-name="Слой 1"><path class="cls-1" d="M467 0H45A45.05 45.05 0 000 45v240a45.05 45.05 0 0045 45h46v75a15 15 0 0024 12l116-87h236a45.05 45.05 0 0045-45V45a45.05 45.05 0 00-45-45zm15 285a15 15 0 01-15 15H226a15 15 0 00-9 3l-96 72v-60a15 15 0 00-15-15H45a15 15 0 01-15-15V45a15 15 0 0115-15h422a15 15 0 0115 15z"/><path class="cls-1" d="M406 90H106a15 15 0 000 30h300a15 15 0 000-30zm-105 75a15 15 0 00-15-15H106a15 15 0 000 30h180a15 15 0 0015-15zm105-15h-60a15 15 0 000 30h60a15 15 0 000-30zm-210 60h-90a15 15 0 000 30h90a15 15 0 000-30zm210 0H256a15 15 0 000 30h150a15 15 0 000-30z"/></g></g></svg>