<svg xmlns="http://www.w3.org/2000/svg" viewBox="0 0 508 507.97"><defs><style>.cls-1{fill:#c3c5d2}</style></defs><g id="Слой_2" data-name="Слой 2"><g id="Layer_1" data-name="Layer 1"><path class="cls-1" d="M97.1 423.37H80.6a14.11 14.11 0 000 28.21h16.5a14.11 14.11 0 000-28.21zm88.2 0h-16.5a14.11 14.11 0 000 28.21h16.5a14.11 14.11 0 000-28.21zm88.2 0H257a14.11 14.11 0 000 28.21h16.5a14.11 14.11 0 000-28.21zm88.2 0h-16.5a14.11 14.11 0 000 28.21h16.5a14.11 14.11 0 000-28.21z"/><path class="cls-1" d="M496.1 175.17L373 52.17l-39.8-39.79a42.43 42.43 0 00-59.9 0l-181 180.69h-50A42.38 42.38 0 000 235.37v230.3A42.4 42.4 0 0042.4 508H400a42.4 42.4 0 0042.4-42.3V288.77l53.8-53.7c7.9-8 22.1-37.8-.1-59.9zM293.2 32.27a14.18 14.18 0 0120 0l29.8 29.9-131 130.9h-79.7zM400 479.77H42.4a14.08 14.08 0 01-14.1-14.1v-159.9h385.8v159.9a14.08 14.08 0 01-14.1 14.1zm14.1-202.19H28.3v-42.2a14.08 14.08 0 0114.1-14.1H400a14.08 14.08 0 0114.1 14.1zm62-62.51l-33.8 33.8v-13.5a42.4 42.4 0 00-42.4-42.3h-148l111.1-111 113.2 113.1c8.1 8.1 2.6 17.31-.1 19.9z"/></g></g></svg>