<svg xmlns="http://www.w3.org/2000/svg" viewBox="0 0 512 512"><defs><style>.cls-1{fill:#c3c5d2}</style></defs><g id="Слой_2" data-name="Слой 2"><g id="Capa_1" data-name="Capa 1"><path class="cls-1" d="M497 190a15 15 0 0015-15v-60a15 15 0 00-9.25-13.85l-241-100a15 15 0 00-11.5 0l-241 100A15 15 0 000 115v60a15 15 0 0015 15h26v170h-5a15 15 0 00-15 15v45h-6a15 15 0 00-15 15v62a15 15 0 0015 15h482a15 15 0 0015-15v-62a15 15 0 00-15-15h-6v-45a15 15 0 00-15-15h-5V190zm-15 260v32H30v-32zm-361-60v30H51v-30zm-50-30V190h30v170zm65 0h-5V190h250v170h-5a15 15 0 00-15 15v45H151v-45a15 15 0 00-15-15zm325 30v30h-70v-30zm-50-30V190h30v170zM30 160v-35l226-93.76L482 125v35z"/><path class="cls-1" d="M346 100H166a15 15 0 000 30h180a15 15 0 000-30zm-90 250a15 15 0 01-15-15 15 15 0 00-30 0 45.07 45.07 0 0030 42.42V385a15 15 0 0030 0v-7.58A45 45 0 00256 290a15 15 0 1115-15 15 15 0 0030 0 45.06 45.06 0 00-30-42.42V225a15 15 0 00-30 0v7.58A45 45 0 00256 320a15 15 0 010 30z"/></g></g></svg>