<svg xmlns="http://www.w3.org/2000/svg" viewBox="0 0 384 384"><g data-name="Слой 2"><path d="M353.19 252.05a218 218 0 01-68.47-10.9c-10.91-3.72-23.32-.84-30.44 6.41l-43.18 32.6c-50.1-26.73-80.91-57.57-107.28-107.26l31.64-42.06a31 31 0 007.63-31.44 218.4 218.4 0 01-11-68.59A30.84 30.84 0 00101.33 0H30.81A30.84 30.84 0 000 30.81C0 225.56 158.44 384 353.19 384A30.84 30.84 0 00384 353.19v-70.33a30.85 30.85 0 00-30.81-30.81zm9.48 101.14a9.49 9.49 0 01-9.48 9.48c-183 0-331.86-148.87-331.86-331.86a9.49 9.49 0 019.48-9.48h70.52a9.49 9.49 0 019.48 9.48 239.17 239.17 0 0012 75.12c1.11 3.54.21 7.21-3.37 10.94l-36.69 48.56a10.68 10.68 0 00-1 11.26c29.93 58.82 66.29 95.19 125.53 125.54a10.63 10.63 0 0011.29-1l49.68-37.64a9.43 9.43 0 019.67-2.25 239.49 239.49 0 0075.27 12 9.49 9.49 0 019.48 9.47z" fill="#c3c5d2" data-name="Layer 1"/></g></svg>