<svg width="172" height="218" viewBox="0 0 172 218" fill="none" xmlns="http://www.w3.org/2000/svg">
<path fill-rule="evenodd" clip-rule="evenodd" d="M18.933 1.567C18.396 1.989 17.247 2.461 16.379 2.616C15.51 2.77 14.35 3.28 13.8 3.748C12.512 4.845 11.155 5.6 10.47 5.6C10.172 5.6 9.72299 6.05 9.47299 6.6C9.22199 7.15 8.73899 7.6 8.39999 7.6C8.06099 7.6 7.57899 8.047 7.33099 8.592C7.08199 9.138 6.54599 9.69 6.13899 9.819C5.73299 9.948 5.39999 10.28 5.39999 10.557C5.39999 10.833 4.78699 11.921 4.03899 12.974C3.19899 14.154 2.57399 15.6 2.40799 16.744C2.25999 17.765 1.74699 19.23 1.26899 20L0.399994 21.4V94.8C0.399994 162.636 0.450994 168.276 1.06699 169.2C1.43299 169.75 2.04099 171.46 2.41599 173C2.79199 174.54 3.43699 176.122 3.84999 176.516C4.26199 176.909 4.59999 177.49 4.59999 177.807C4.59999 178.123 5.83899 179.601 7.35399 181.091C11.107 184.782 11.607 185.167 13.508 185.838C14.417 186.159 15.465 186.697 15.838 187.035C17.015 188.1 23.313 188.35 54.2 188.561C78.404 188.727 84.451 188.874 86.4 189.348C87.72 189.668 89.88 190.056 91.2 190.21C92.52 190.364 94.8 191.01 96.267 191.645C97.734 192.28 99.219 192.8 99.567 192.8C99.915 192.8 100.556 193.156 100.991 193.591C101.426 194.026 102.4 194.64 103.156 194.956C104.815 195.649 105.338 196.085 109.528 200.265C113.282 204.012 114.385 205.389 115.204 207.348C115.525 208.117 115.991 208.871 116.239 209.024C116.488 209.178 117.024 210.056 117.431 210.976C117.838 211.897 118.537 212.981 118.985 213.387C119.433 213.792 119.8 214.303 119.8 214.522C119.8 216.806 125.212 218.555 126.812 216.787C127.216 216.34 128.339 215.775 129.308 215.531C130.276 215.287 131.159 214.851 131.27 214.562C131.381 214.273 132.422 213.76 133.584 213.422C134.745 213.084 135.914 212.545 136.181 212.223C136.448 211.901 137.618 211.361 138.781 211.023C139.944 210.685 141.102 210.159 141.355 209.854C141.608 209.549 142.667 209.067 143.708 208.782C144.748 208.497 146.109 207.845 146.731 207.332C147.353 206.819 148.263 206.4 148.753 206.4C149.243 206.4 150.252 205.952 150.994 205.405C151.735 204.857 152.985 204.291 153.771 204.147C154.557 204.003 155.709 203.461 156.331 202.942C156.953 202.424 157.741 202 158.082 202C158.423 202 159.625 201.483 160.751 200.85C161.878 200.218 163.34 199.575 164 199.421C164.66 199.267 165.56 198.815 166 198.416C166.44 198.018 167.25 197.558 167.8 197.393C170.907 196.465 172.233 192.941 170.612 189.917C170.178 189.108 169.608 187.581 169.345 186.523C169.083 185.465 168.504 183.896 168.059 183.035C167.381 181.721 167.199 180.287 166.922 174.082C166.735 169.905 166.341 165.805 166.014 164.647C165.697 163.521 165.233 160.086 164.985 157.014C164.612 152.407 164.369 151.145 163.596 149.814C163.081 148.926 162.538 147.537 162.39 146.728C162.242 145.918 161.889 145.166 161.605 145.057C161.085 144.858 159.8 142.607 159.8 141.896C159.8 141.687 159.35 141.161 158.8 140.729C158.25 140.296 157.8 139.766 157.8 139.552C157.8 138.893 149.985 131.6 149.279 131.6C149.057 131.6 148.263 131.132 147.513 130.561C146.764 129.99 145.487 129.342 144.676 129.123C143.864 128.903 142.839 128.39 142.397 127.983C140.019 125.791 123.211 125.837 120.225 128.045C118.97 128.973 116.195 128.954 115.252 128.012C114.923 127.683 114.746 112.827 114.6 73.28L114.4 19L112.9 15.931C112.075 14.243 111.4 12.767 111.4 12.649C111.4 12.463 110.439 11.336 109.024 9.865C108.779 9.609 108.358 9.166 108.089 8.881C107.82 8.595 107.358 8.145 107.062 7.881C106.766 7.616 106.11 7.022 105.604 6.56C105.098 6.098 103.9 5.409 102.942 5.028C101.984 4.648 100.84 4.013 100.4 3.617C99.96 3.222 98.95 2.783 98.155 2.642C97.36 2.5 96.387 2.028 95.993 1.592C94.886 0.369002 20.487 0.344 18.933 1.567ZM94.94 11.639C95.633 11.881 96.2 12.227 96.2 12.408C96.2 12.59 96.865 12.958 97.678 13.226C99.213 13.732 101.8 15.938 101.8 16.74C101.8 16.993 101.975 17.2 102.19 17.2C102.687 17.2 103.8 19.333 103.8 20.286C103.8 20.685 104.205 21.729 104.7 22.606L105.6 24.2L105.718 69.034C105.83 112.002 105.805 113.906 105.102 114.773L104.369 115.678L102.585 114.203C101.603 113.391 100.612 112.297 100.383 111.77C100.153 111.244 99.57 110.446 99.088 109.996C98.605 109.546 98.087 108.69 97.938 108.094C97.788 107.497 97.246 106.679 96.733 106.276C96.22 105.872 95.8 105.308 95.8 105.022C95.8 104.736 95.461 103.714 95.047 102.751C94.333 101.09 94.283 99.03 94.07 62.468C93.902 33.761 93.725 23.791 93.373 23.368C92.684 22.537 21.737 22.512 21.048 23.343C20.717 23.741 20.624 39.914 20.699 84.043L20.8 144.2L50.817 144.4L80.835 144.6L82.713 146.2C84.023 147.316 84.722 148.284 85.024 149.4C85.263 150.28 85.699 151.482 85.993 152.07C86.459 153.001 86.442 153.215 85.864 153.71C84.911 154.527 80.06 156.8 79.27 156.8C78.903 156.8 77.927 157.4 77.101 158.133C76.276 158.867 75.32 159.567 74.978 159.691C74.636 159.814 74.098 160.699 73.782 161.657C73.467 162.616 72.892 164.023 72.504 164.785C71.536 166.689 71.586 170.589 72.618 173.653C73.711 176.898 73.243 178.58 71.071 179.215C68.441 179.984 23.805 179.558 22.576 178.752C22.033 178.396 20.961 177.97 20.194 177.804C17.41 177.204 13.307 174.076 12.835 172.195C12.694 171.637 12.239 170.839 11.823 170.423C10.46 169.06 10.4 165.829 10.4 94.4C10.4 23.374 10.452 20.548 11.789 19.211C12.192 18.808 12.638 18.11 12.781 17.66C13.205 16.323 15.819 14.055 18.6 12.61L21.2 11.259L57.44 11.229C82.793 11.209 94.059 11.332 94.94 11.639ZM83.691 33.309L84.8 34.418L84.907 65.945L85.014 97.472L83.807 98.991C83.143 99.827 82.6 100.629 82.6 100.775C82.6 100.92 81.925 101.277 81.1 101.567C80.275 101.858 79.24 102.422 78.8 102.821C78.36 103.22 77.505 103.734 76.9 103.963C76.295 104.193 75.8 104.634 75.8 104.944C75.8 105.254 75.35 105.803 74.8 106.163C74.25 106.524 73.8 107.133 73.8 107.516C73.8 107.9 73.311 108.931 72.714 109.807C71.224 111.994 71.067 119.212 72.468 121.107C72.932 121.735 73.522 123.259 73.778 124.493C74.034 125.728 74.503 126.954 74.821 127.217C76.127 128.301 76.901 132.442 75.971 133.371C75.023 134.32 31.643 134.326 30.289 133.377L29.4 132.755V83.666C29.4 29.451 29.214 33.231 31.918 32.437C32.671 32.216 43.397 32.089 57.891 32.13L82.582 32.2L83.691 33.309ZM55.091 58.268C54.812 58.38 53.82 59.257 52.888 60.216C51.956 61.175 50.52 62.242 49.696 62.585C48.873 62.929 48.2 63.343 48.199 63.505C48.199 63.667 47.407 64.3 46.44 64.911C45.374 65.584 44.408 66.61 43.989 67.511C43.609 68.33 43.041 69.295 42.726 69.656C40.896 71.759 43.308 78.986 46.177 79.995C46.96 80.271 47.964 80.827 48.409 81.232C49.005 81.774 50.279 82.068 53.241 82.347C55.978 82.604 57.763 82.993 58.826 83.563C59.685 84.023 60.671 84.4 61.016 84.4C61.799 84.4 64.022 86.701 64.376 87.878C64.583 88.568 64.247 89.153 62.802 90.619L60.964 92.483L56.208 92.342C51.655 92.206 51.403 92.153 50.304 91.1C49.673 90.495 48.887 90 48.558 90C48.229 90 47.789 89.835 47.58 89.634C46.904 88.982 44.844 89.057 43.062 89.796C41.039 90.636 40.939 92.234 42.809 93.842C43.354 94.31 43.807 94.852 43.816 95.047C43.84 95.574 48.848 98.4 49.759 98.4C51.628 98.4 52.589 99.147 53.079 100.978C54.096 104.783 59.962 104.301 61.229 100.309C61.578 99.209 62.536 98.43 63.559 98.413C64.292 98.4 68.108 96.077 69.464 94.817C71.109 93.288 72.618 87.309 71.714 85.897C71.398 85.404 70.905 84.145 70.618 83.1C70.331 82.055 69.931 81.2 69.73 81.2C69.528 81.2 68.897 80.733 68.327 80.163C67.573 79.409 66.459 78.958 64.245 78.512C62.57 78.175 60.728 77.659 60.152 77.366C59.575 77.073 57.896 76.709 56.419 76.558C54.158 76.326 53.473 76.064 52.068 74.894C49.294 72.584 49.288 72.543 51.406 70.301L53.012 68.6L56.61 68.673C59.544 68.732 60.607 68.935 62.379 69.773C65.719 71.353 68.397 71.128 69.554 69.171C70.237 68.014 70.148 67.2 69.337 67.2C69.108 67.2 68.419 66.705 67.805 66.1C67.192 65.495 66.084 64.513 65.345 63.917C62.532 61.653 59.973 59.471 59.284 58.75C58.597 58.03 56.33 57.769 55.091 58.268ZM90.156 113.836C91.545 115.132 92.204 116.096 92.395 117.116C92.544 117.91 92.939 118.76 93.272 119.003C93.605 119.246 94.129 120.418 94.438 121.606C94.746 122.795 95.263 123.916 95.587 124.097C95.911 124.278 96.379 125.179 96.627 126.099C96.874 127.019 97.419 128.207 97.837 128.738C98.255 129.27 98.795 130.44 99.037 131.338C99.279 132.237 99.819 133.407 100.237 133.938C100.655 134.47 101.194 135.646 101.434 136.552C101.675 137.458 102.195 138.56 102.59 139C102.985 139.44 103.444 140.25 103.61 140.8C104.55 143.918 107.663 144.985 110.751 143.248C111.878 142.614 113.45 141.981 114.245 141.84C115.04 141.699 116.01 141.231 116.4 140.8C116.79 140.369 117.76 139.903 118.555 139.764C119.35 139.626 120.63 139.104 121.4 138.603C122.17 138.102 123.7 137.582 124.8 137.447C125.9 137.311 128.003 136.894 129.473 136.519C131.956 135.885 132.297 135.883 134.273 136.486C135.443 136.844 137.33 137.255 138.467 137.401C139.685 137.557 141.073 138.063 141.845 138.633C142.566 139.165 143.364 139.6 143.618 139.6C143.873 139.6 144.635 140.095 145.313 140.7C145.99 141.305 147.009 142.16 147.577 142.6C148.657 143.437 151.8 147.41 151.8 147.939C151.8 148.107 152.242 148.844 152.783 149.577C153.324 150.31 153.975 151.915 154.23 153.143C154.485 154.372 155.033 156.01 155.447 156.783C156.108 158.016 156.201 159.118 156.207 165.794C156.215 174.966 156.71 180.206 157.763 182.277C159.737 186.156 159.606 190.863 157.511 191.384C156.9 191.535 156.04 191.99 155.6 192.394C155.16 192.798 154.058 193.325 153.152 193.566C152.246 193.806 151.076 194.327 150.552 194.724C150.028 195.12 148.79 195.691 147.8 195.993C146.81 196.295 145.702 196.793 145.338 197.099C144.974 197.405 143.861 197.901 142.865 198.2C141.869 198.5 140.701 199.099 140.27 199.53C139.838 199.962 138.762 200.438 137.878 200.587C136.994 200.736 135.961 201.202 135.581 201.621C135.201 202.041 134.24 202.505 133.445 202.653C132.65 202.8 131.46 203.328 130.8 203.827C128.06 205.896 124.323 204.823 123.551 201.746C123.418 201.215 122.998 200.561 122.618 200.291C122.238 200.021 121.473 199.077 120.918 198.194C120.363 197.311 119.614 196.344 119.254 196.045C118.894 195.746 118.6 195.266 118.6 194.978C118.6 194.69 118.06 194.07 117.4 193.6C116.74 193.13 116.2 192.488 116.2 192.173C116.2 191.858 115.96 191.6 115.666 191.6C115.372 191.6 114.651 191.06 114.063 190.4C113.475 189.74 112.766 189.2 112.488 189.2C112.21 189.2 111.356 188.685 110.591 188.057C109.826 187.428 108.75 186.78 108.2 186.617C107.65 186.453 106.57 185.907 105.8 185.403C105.03 184.899 103.724 184.369 102.898 184.225C102.073 184.081 101.083 183.632 100.698 183.228C100.314 182.824 99.37 182.365 98.6 182.209C97.83 182.053 96.57 181.512 95.8 181.008C95.03 180.504 93.86 179.968 93.2 179.816C92.54 179.665 91.64 179.216 91.2 178.82C90.76 178.423 89.698 177.874 88.841 177.599C85.246 176.446 82.2 172.969 82.2 170.017C82.2 167.946 83.309 166.013 84.546 165.927C86.461 165.794 87.83 166.001 88.721 166.559C89.204 166.862 90.312 167.235 91.182 167.389C92.052 167.542 93.281 168.102 93.913 168.634C95.393 169.879 99.539 170.057 100.128 168.9C101.609 165.993 100.99 157.958 99.184 156.638C98.838 156.385 98.386 155.428 98.18 154.511C97.974 153.594 97.355 152.179 96.803 151.366C96.251 150.553 95.8 149.488 95.8 148.998C95.8 148.508 95.431 147.638 94.979 147.065C94.528 146.491 93.874 145.162 93.525 144.111C93.177 143.06 92.587 141.84 92.214 141.4C91.841 140.96 91.327 139.864 91.071 138.965C90.816 138.066 90.264 136.935 89.846 136.453C89.427 135.97 88.961 134.905 88.81 134.087C88.659 133.269 88.206 132.24 87.803 131.8C87.401 131.36 86.859 130.19 86.6 129.2C86.341 128.21 85.804 127.04 85.407 126.6C85.011 126.16 84.564 125.223 84.416 124.519C84.267 123.814 83.823 122.824 83.431 122.319C78.533 116.018 84.467 108.532 90.156 113.836ZM48.599 159.203C48.357 159.654 48.22 161.537 48.284 163.503L48.4 167H58.2H68L68.123 164C68.19 162.35 68.137 160.415 68.004 159.7L67.764 158.4H58.396C49.427 158.4 49.01 158.434 48.599 159.203Z" fill="#CACBD7"/>
</svg>
