<svg xmlns="http://www.w3.org/2000/svg" viewBox="0 0 512 420.01"><defs><style>.cls-1{fill:#c3c5d2;}</style></defs><title>11</title><g id="Слой_2" data-name="Слой 2"><g id="Слой_1-2" data-name="Слой 1"><path class="cls-1" d="M467,0H45A45.05,45.05,0,0,0,0,45V285a45.05,45.05,0,0,0,45,45H91v75a15,15,0,0,0,24,12l116-87H467a45.05,45.05,0,0,0,45-45V45A45.05,45.05,0,0,0,467,0Zm15,285a15,15,0,0,1-15,15H226a15,15,0,0,0-9,3l-96,72V315a15,15,0,0,0-15-15H45a15,15,0,0,1-15-15V45A15,15,0,0,1,45,30H467a15,15,0,0,1,15,15Z"/><path class="cls-1" d="M406,90H106a15,15,0,0,0,0,30H406a15,15,0,0,0,0-30Z"/><path class="cls-1" d="M301,165a15,15,0,0,0-15-15H106a15,15,0,0,0,0,30H286A15,15,0,0,0,301,165Z"/><path class="cls-1" d="M406,150H346a15,15,0,0,0,0,30h60a15,15,0,0,0,0-30Z"/><path class="cls-1" d="M196,210H106a15,15,0,0,0,0,30h90a15,15,0,0,0,0-30Z"/><path class="cls-1" d="M406,210H256a15,15,0,0,0,0,30H406a15,15,0,0,0,0-30Z"/></g></g></svg>