<svg xmlns="http://www.w3.org/2000/svg" viewBox="0 0 512 326.33"><defs><style>.cls-1{fill:#c3c5d2;}</style></defs><title>10</title><g id="Слой_2" data-name="Слой 2"><g id="Capa_1" data-name="Capa 1"><path class="cls-1" d="M508.74,153.21C504.17,147,395.19,0,256,0S7.82,147,3.25,153.2a16.9,16.9,0,0,0,0,19.92C7.82,179.38,116.81,326.33,256,326.33s248.17-146.95,252.74-153.2A16.87,16.87,0,0,0,508.74,153.21ZM256,292.57C153.47,292.57,64.67,195,38.38,163.15,64.63,131.24,153.25,33.76,256,33.76c102.52,0,191.32,97.51,217.61,129.42C447.36,195.09,358.75,292.57,256,292.57Z"/><path class="cls-1" d="M256,61.89A101.28,101.28,0,1,0,357.27,163.16,101.39,101.39,0,0,0,256,61.89Zm0,168.79a67.52,67.52,0,1,1,67.51-67.52A67.6,67.6,0,0,1,256,230.68Z"/></g></g></svg>