<svg xmlns="http://www.w3.org/2000/svg" viewBox="0 0 508 507.97"><defs><style>.cls-1{fill:#c3c5d2;}</style></defs><title>1</title><g id="Слой_2" data-name="Слой 2"><g id="Layer_1" data-name="Layer 1"><path class="cls-1" d="M97.1,423.37H80.6a14.11,14.11,0,0,0,0,28.21H97.1a14.11,14.11,0,0,0,0-28.21Z"/><path class="cls-1" d="M185.3,423.37H168.8a14.11,14.11,0,0,0,0,28.21h16.5a14.11,14.11,0,0,0,0-28.21Z"/><path class="cls-1" d="M273.5,423.37H257a14.11,14.11,0,0,0,0,28.21h16.5a14.11,14.11,0,0,0,0-28.21Z"/><path class="cls-1" d="M361.7,423.37H345.2a14.11,14.11,0,0,0,0,28.21h16.5a14.11,14.11,0,0,0,0-28.21Z"/><path class="cls-1" d="M496.1,175.17,373,52.17,333.2,12.38a42.43,42.43,0,0,0-59.9,0L92.3,193.07h-50A42.38,42.38,0,0,0,0,235.37v230.3A42.4,42.4,0,0,0,42.4,508H400a42.4,42.4,0,0,0,42.4-42.3V288.77l53.8-53.7C504.1,227.07,518.3,197.27,496.1,175.17ZM293.2,32.27a14.18,14.18,0,0,1,20,0L343,62.17,212,193.07H132.3ZM400,479.77H42.4a14.08,14.08,0,0,1-14.1-14.1V305.77H414.1v159.9h0A14.08,14.08,0,0,1,400,479.77Zm14.1-202.19H28.3v-42.2a14.08,14.08,0,0,1,14.1-14.1H400a14.08,14.08,0,0,1,14.1,14.1Zm62-62.51-33.8,33.8v-13.5a42.4,42.4,0,0,0-42.4-42.3h-148L363,82.07l113.2,113.1C484.3,203.27,478.8,212.48,476.1,215.07Z"/></g></g></svg>