<svg xmlns="http://www.w3.org/2000/svg" viewBox="0 0 512 512"><defs><style>.cls-1{fill:#c3c5d2;}</style></defs><title>Ресурс 1</title><g id="Слой_2" data-name="Слой 2"><g id="Capa_1" data-name="Capa 1"><path class="cls-1" d="M497,190a15,15,0,0,0,15-15V115a15,15,0,0,0-9.25-13.85l-241-100a15,15,0,0,0-11.5,0l-241,100A15,15,0,0,0,0,115v60a15,15,0,0,0,15,15H41V360H36a15,15,0,0,0-15,15v45H15A15,15,0,0,0,0,435v62a15,15,0,0,0,15,15H497a15,15,0,0,0,15-15V435a15,15,0,0,0-15-15h-6V375a15,15,0,0,0-15-15h-5V190ZM482,450v32H30V450ZM121,390v30H51V390ZM71,360V190h30V360Zm65,0h-5V190H381V360h-5a15,15,0,0,0-15,15v45H151V375A15,15,0,0,0,136,360Zm325,30v30H391V390Zm-50-30V190h30V360ZM30,160V125L256,31.24,482,125v35Z"/><path class="cls-1" d="M346,100H166a15,15,0,0,0,0,30H346a15,15,0,0,0,0-30Z"/><path class="cls-1" d="M256,350a15,15,0,0,1-15-15,15,15,0,0,0-30,0,45.07,45.07,0,0,0,30,42.42V385a15,15,0,0,0,30,0v-7.58A45,45,0,0,0,256,290a15,15,0,1,1,15-15,15,15,0,0,0,30,0,45.06,45.06,0,0,0-30-42.42V225a15,15,0,0,0-30,0v7.58A45,45,0,0,0,256,320a15,15,0,0,1,0,30Z"/></g></g></svg>